<?xml version="1.0"?>
<svg version="1.1" xmlns="http://www.w3.org/2000/svg" width="400px" height="77px" style="border: dashed 2px #aaa"><path fill="#e3a532" d="M24.639,59.613c0,0.387-0.172,0.645-0.688,0.86c-2.838,1.161-5.418,1.763-8.557,1.763c-9.073,0-13.502-6.407-13.502-15.265c0-8.815,5.289-15.566,13.932-15.566c2.967,0,5.633,0.602,8.084,1.806c0.516,0.258,0.688,0.473,0.688,0.731c0,0.172-0.043,0.344-0.129,0.559l-0.989,2.709c-0.129,0.387-0.344,0.559-0.602,0.559c-0.129,0-0.301-0.086-0.473-0.172c-2.15-1.118-4.085-1.548-6.235-1.548c-5.977,0-8.299,5.504-8.299,10.707c0,6.622,3.096,10.836,8.385,10.836c2.064,0,4.171-0.473,6.192-1.376c0.215-0.086,0.387-0.172,0.516-0.172c0.301,0,0.516,0.215,0.688,0.645l0.86,2.322c0.086,0.215,0.129,0.43,0.129,0.602z M50.3745,51.271c0,6.192-3.784,10.965-10.492,10.965c-7.009,0-10.234-4.73-10.234-11.008c0-6.192,3.784-10.922,10.492-10.922c7.009,0,10.234,4.644,10.234,10.965z M44.9995,51.271c0-3.526-1.118-6.88-4.902-6.88c-3.827,0-5.074,3.311-5.074,6.751c0,3.526,1.075,7.009,4.902,7.009c3.784,0,5.074-3.354,5.074-6.88z M70.09,60.43c0,0.43-0.215,0.645-0.645,0.817c-1.333,0.559-3.096,0.989-4.816,0.989c-2.193,0-4.085-0.559-5.16-1.806c-1.333-1.505-1.376-3.268-1.376-6.407l0-9.589l-2.021,0c-0.817,0-0.946-0.172-0.946-1.075l0-1.634c0-0.516,0.258-0.86,0.774-0.86l2.193,0l0-4.687c0-0.731,0.387-0.946,1.075-1.032l3.096-0.387l0.215,0c0.559,0,0.817,0.301,0.817,0.946l0,5.16l4.859,0c0.516,0,0.817,0.172,0.817,0.731l0,2.021c0,0.516-0.344,0.817-0.86,0.817l-4.816,0l0,9.847c0,1.29,0.086,2.236,0.559,2.924c0.387,0.559,0.989,0.903,2.021,0.903c1.075,0,1.978-0.258,2.752-0.516c0.172-0.043,0.301-0.086,0.43-0.086c0.301,0,0.473,0.172,0.559,0.516l0.43,2.15c0.043,0.129,0.043,0.172,0.043,0.258z M81.8075,35.404c0,1.677-1.462,2.709-2.881,2.709s-2.924-0.946-2.924-2.666s1.419-2.752,2.924-2.752c1.462,0,2.881,0.989,2.881,2.709z M81.5495,60.645c0,0.774-0.344,1.075-1.075,1.075l-3.01,0c-0.774,0-1.118-0.301-1.118-1.075l0-18.791c0-0.731,0.43-0.989,1.118-0.989l3.01,0c0.688,0,1.075,0.215,1.075,0.989l0,18.791z M104.533,60.903c0,0.516-0.301,0.817-0.817,0.817l-14.577,0c-0.774,0-1.032-0.43-1.032-1.032l0-1.075c0-0.602,0.043-0.903,0.43-1.462l9.288-13.674l0-0.043l-7.955,0c-0.817,0-0.989-0.215-0.989-1.118l0-1.548c0-0.516,0.258-0.903,0.817-0.903l13.588,0c0.817,0,0.989,0.43,0.989,0.903l0,1.204c0,0.516-0.086,0.946-0.43,1.419l-9.46,13.674l0,0.086l9.288,0c0.516,0,0.86,0.172,0.86,0.731l0,2.021z M131.0855,60.903c0,0.516-0.344,0.817-0.86,0.817l-2.064,0c-2.236,0-3.225-1.075-3.526-2.537l-0.086,0c-1.075,1.591-3.87,3.053-6.235,3.053c-6.063,0-8.815-4.988-8.815-10.578c0-7.439,4.472-11.352,9.288-11.352c2.279,0,4.429,1.032,5.504,2.494l0.086-1.161c0.043-0.473,0.387-0.774,0.903-0.774l3.01,0c0.559,0,0.903,0.301,0.903,0.946l0,14.921c0,0.602,0.086,1.032,0.258,1.247c0.129,0.129,0.301,0.172,0.516,0.172l0.344,0c0.516,0,0.774,0.172,0.774,0.731l0,2.021z M123.9905,55.055l0-8.299c-0.86-1.247-2.623-2.193-4.257-2.193c-2.623,0-4.859,2.236-4.859,6.751c0,3.612,1.376,6.665,4.558,6.665c2.107,0,3.913-1.591,4.558-2.924z M159.315,59.613c0,0.387-0.172,0.645-0.688,0.86c-2.838,1.161-5.418,1.763-8.557,1.763c-9.073,0-13.502-6.407-13.502-15.265c0-8.815,5.289-15.566,13.932-15.566c2.967,0,5.633,0.602,8.084,1.806c0.516,0.258,0.688,0.473,0.688,0.731c0,0.172-0.043,0.344-0.129,0.559l-0.989,2.709c-0.129,0.387-0.344,0.559-0.602,0.559c-0.129,0-0.301-0.086-0.473-0.172c-2.15-1.118-4.085-1.548-6.235-1.548c-5.977,0-8.299,5.504-8.299,10.707c0,6.622,3.096,10.836,8.385,10.836c2.064,0,4.171-0.473,6.192-1.376c0.215-0.086,0.387-0.172,0.516-0.172c0.301,0,0.516,0.215,0.688,0.645l0.86,2.322c0.086,0.215,0.129,0.43,0.129,0.602z M185.0505,51.271c0,6.192-3.784,10.965-10.492,10.965c-7.009,0-10.234-4.73-10.234-11.008c0-6.192,3.784-10.922,10.492-10.922c7.009,0,10.234,4.644,10.234,10.965z M179.6755,51.271c0-3.526-1.118-6.88-4.902-6.88c-3.827,0-5.074,3.311-5.074,6.751c0,3.526,1.075,7.009,4.902,7.009c3.784,0,5.074-3.354,5.074-6.88z M210.485,60.602c0,0.731-0.258,1.118-1.032,1.118l-3.096,0c-0.774,0-1.032-0.387-1.032-1.118l0-11.696c0-2.365-0.645-4.042-3.268-4.042c-1.677,0-3.741,0.903-5.074,2.064l0,13.717c0,0.731-0.301,1.075-1.032,1.075l-3.139,0c-0.645,0-1.032-0.344-1.032-1.032l0-18.748c0-0.688,0.301-1.075,1.075-1.075l2.795,0c0.602,0,0.989,0.172,1.032,0.817l0.043,1.118c1.978-1.591,4.472-2.494,6.966-2.494c4.816,0,6.794,3.01,6.794,7.697l0,12.599z M232.3505,55.571c0,4.515-3.913,6.665-8.299,6.665c-2.236,0-4.687-0.645-6.622-1.505c-0.387-0.172-0.516-0.43-0.516-0.688c0-0.129,0.043-0.258,0.086-0.387l0.688-2.193c0.129-0.43,0.344-0.602,0.602-0.602c0.129,0,0.258,0,0.473,0.086c1.892,0.774,3.913,1.333,5.418,1.333c1.892,0,3.182-0.86,3.182-2.279c0-1.204-0.817-1.849-2.58-2.537l-3.397-1.29c-2.451-0.903-4.429-2.795-4.429-5.719c0-4.214,3.956-6.149,7.783-6.149c2.064,0,4.085,0.344,6.235,1.29c0.344,0.172,0.516,0.344,0.516,0.602c0,0.129-0.043,0.258-0.086,0.43l-0.731,2.322c-0.086,0.301-0.301,0.473-0.602,0.473c-0.129,0-0.301-0.043-0.43-0.086c-1.419-0.559-3.268-1.032-4.644-1.032c-1.806,0-2.709,0.989-2.709,1.978c0,0.946,0.473,1.548,2.107,2.193l3.87,1.591c2.279,0.946,4.085,2.709,4.085,5.504z M251.679,60.43c0,0.43-0.215,0.645-0.645,0.817c-1.333,0.559-3.096,0.989-4.816,0.989c-2.193,0-4.085-0.559-5.16-1.806c-1.333-1.505-1.376-3.268-1.376-6.407l0-9.589l-2.021,0c-0.817,0-0.946-0.172-0.946-1.075l0-1.634c0-0.516,0.258-0.86,0.774-0.86l2.193,0l0-4.687c0-0.731,0.387-0.946,1.075-1.032l3.096-0.387l0.215,0c0.559,0,0.817,0.301,0.817,0.946l0,5.16l4.859,0c0.516,0,0.817,0.172,0.817,0.731l0,2.021c0,0.516-0.344,0.817-0.86,0.817l-4.816,0l0,9.847c0,1.29,0.086,2.236,0.559,2.924c0.387,0.559,0.989,0.903,2.021,0.903c1.075,0,1.978-0.258,2.752-0.516c0.172-0.043,0.301-0.086,0.43-0.086c0.301,0,0.473,0.172,0.559,0.516l0.43,2.15c0.043,0.129,0.043,0.172,0.043,0.258z M269.3735,41.037c0,0.129,0,0.258-0.043,0.387l-0.473,3.053c-0.043,0.387-0.258,0.559-0.602,0.559l-0.172,0c-0.344-0.086-0.774-0.129-1.161-0.129c-1.462,0-3.053,0.774-4.128,2.064l0,13.674c0,0.688-0.301,1.075-1.032,1.075l-3.139,0c-0.688,0-1.032-0.344-1.032-1.075l0-13.416l0-5.289c0-0.86,0.43-1.075,1.075-1.075l2.752,0c0.688,0,1.075,0.215,1.075,0.817l0.043,1.376c1.333-1.677,2.795-2.752,5.203-2.752c0.344,0,0.817,0.086,1.204,0.172c0.301,0.086,0.43,0.215,0.43,0.559z M293.518,60.516c0,0.903-0.258,1.204-1.118,1.204l-2.752,0c-0.559,0-0.989-0.301-1.032-0.86l-0.043-1.075c-1.978,1.591-4.343,2.451-6.837,2.451c-4.816,0-6.794-3.053-6.794-7.697l0-12.685c0-0.731,0.43-0.989,1.118-0.989l3.01,0c0.688,0,1.075,0.215,1.075,0.989l0,11.782c0,2.365,0.602,3.999,3.182,3.999c1.634,0,3.698-0.903,4.988-2.064l0-13.717c0-0.731,0.387-0.989,1.075-0.989l3.053,0c0.688,0,1.075,0.215,1.075,0.989l0,18.662z M317.1465,60.258c0,0.344-0.215,0.516-0.602,0.688c-2.064,0.946-3.956,1.29-6.235,1.29c-6.622,0-10.277-4.128-10.277-10.75c0-6.665,3.999-11.18,10.664-11.18c1.935,0,3.956,0.387,5.762,1.204c0.344,0.172,0.516,0.258,0.516,0.602c0,0.129-0.043,0.387-0.086,0.516l-0.559,2.279c-0.086,0.387-0.258,0.602-0.516,0.602c-0.129,0-0.301-0.086-0.473-0.172c-1.247-0.516-2.623-0.946-4.128-0.946c-3.698,0-5.805,2.623-5.805,6.837c0,4.128,1.892,6.966,5.59,6.966c1.849,0,3.01-0.344,4.515-0.946c0.129-0.043,0.301-0.129,0.43-0.129c0.258,0,0.43,0.215,0.516,0.516l0.559,1.892c0.086,0.301,0.129,0.559,0.129,0.731z M336.217,60.43c0,0.43-0.215,0.645-0.645,0.817c-1.333,0.559-3.096,0.989-4.816,0.989c-2.193,0-4.085-0.559-5.16-1.806c-1.333-1.505-1.376-3.268-1.376-6.407l0-9.589l-2.021,0c-0.817,0-0.946-0.172-0.946-1.075l0-1.634c0-0.516,0.258-0.86,0.774-0.86l2.193,0l0-4.687c0-0.731,0.387-0.946,1.075-1.032l3.096-0.387l0.215,0c0.559,0,0.817,0.301,0.817,0.946l0,5.16l4.859,0c0.516,0,0.817,0.172,0.817,0.731l0,2.021c0,0.516-0.344,0.817-0.86,0.817l-4.816,0l0,9.847c0,1.29,0.086,2.236,0.559,2.924c0.387,0.559,0.989,0.903,2.021,0.903c1.075,0,1.978-0.258,2.752-0.516c0.172-0.043,0.301-0.086,0.43-0.086c0.301,0,0.473,0.172,0.559,0.516l0.43,2.15c0.043,0.129,0.043,0.172,0.043,0.258z M361.6085,51.271c0,6.192-3.784,10.965-10.492,10.965c-7.009,0-10.234-4.73-10.234-11.008c0-6.192,3.784-10.922,10.492-10.922c7.009,0,10.234,4.644,10.234,10.965z M356.2335,51.271c0-3.526-1.118-6.88-4.902-6.88c-3.827,0-5.074,3.311-5.074,6.751c0,3.526,1.075,7.009,4.902,7.009c3.784,0,5.074-3.354,5.074-6.88z M380.12,41.037c0,0.129,0,0.258-0.043,0.387l-0.473,3.053c-0.043,0.387-0.258,0.559-0.602,0.559l-0.172,0c-0.344-0.086-0.774-0.129-1.161-0.129c-1.462,0-3.053,0.774-4.128,2.064l0,13.674c0,0.688-0.301,1.075-1.032,1.075l-3.139,0c-0.688,0-1.032-0.344-1.032-1.075l0-13.416l0-5.289c0-0.86,0.43-1.075,1.075-1.075l2.752,0c0.688,0,1.075,0.215,1.075,0.817l0.043,1.376c1.333-1.677,2.795-2.752,5.203-2.752c0.344,0,0.817,0.086,1.204,0.172c0.301,0.086,0.43,0.215,0.43,0.559z"/><path fill="#" d=""/></svg>
